<svg xmlns="http://www.w3.org/2000/svg" width="900" height="1200" viewBox="0 0 900 1200">
  <defs>
    <linearGradient id="g1" x1="0" x2="1" y1="0" y2="1">
      <stop offset="0" stop-color="#8ecae6"/>
      <stop offset="0.55" stop-color="#219ebc"/>
      <stop offset="1" stop-color="#ffb703"/>
    </linearGradient>
    <filter id="blur" x="-20%" y="-20%" width="140%" height="140%">
      <feGaussianBlur stdDeviation="18"/>
    </filter>
  </defs>
  <rect x="170" y="70" width="560" height="1060" rx="64" fill="#0b1220"/>
  <rect x="200" y="120" width="500" height="960" rx="44" fill="#ffffff"/>
  <rect x="330" y="92" width="240" height="18" rx="9" fill="#0f172a" opacity=".6"/>
  <circle cx="290" cy="100" r="10" fill="#0f172a" opacity=".6"/>

  <g opacity=".9">
    <circle cx="320" cy="260" r="150" fill="url(#g1)" filter="url(#blur)"/>
    <circle cx="520" cy="340" r="130" fill="#ffb703" filter="url(#blur)" opacity=".8"/>
    <circle cx="460" cy="220" r="110" fill="#219ebc" filter="url(#blur)" opacity=".7"/>
  </g>

  <text x="250" y="220" font-family="Inter, system-ui, -apple-system, Segoe UI, Roboto" font-size="44" fill="#0f172a" font-weight="800">Overcomers SLE</text>
  <text x="250" y="265" font-family="Inter, system-ui" font-size="22" fill="#334155">Preview area for phone screenshots</text>

  <rect x="250" y="310" width="400" height="86" rx="18" fill="#0f172a" opacity=".07"/>
  <text x="275" y="355" font-family="Inter, system-ui" font-size="22" fill="#0f172a" font-weight="600">Upload your real images later</text>

  <rect x="250" y="430" width="400" height="170" rx="22" fill="#0f172a" opacity=".06"/>
  <text x="275" y="480" font-family="Inter, system-ui" font-size="20" fill="#0f172a" font-weight="700">Story highlight</text>
  <text x="275" y="515" font-family="Inter, system-ui" font-size="18" fill="#334155">A short caption about impact,</text>
  <text x="275" y="540" font-family="Inter, system-ui" font-size="18" fill="#334155">community, and recovery support.</text>

  <rect x="250" y="630" width="190" height="130" rx="20" fill="#219ebc" opacity=".12"/>
  <rect x="460" y="630" width="190" height="130" rx="20" fill="#ffb703" opacity=".14"/>
  <text x="270" y="705" font-family="Inter, system-ui" font-size="18" fill="#0f172a" font-weight="600">Resources</text>
  <text x="480" y="705" font-family="Inter, system-ui" font-size="18" fill="#0f172a" font-weight="600">Apply</text>

  <rect x="250" y="795" width="400" height="200" rx="24" fill="#0f172a" opacity=".06"/>
  <text x="275" y="845" font-family="Inter, system-ui" font-size="20" fill="#0f172a" font-weight="700">Calendar / updates</text>
  <text x="275" y="880" font-family="Inter, system-ui" font-size="18" fill="#334155">Space for announcements, events,</text>
  <text x="275" y="905" font-family="Inter, system-ui" font-size="18" fill="#334155">or a YouTube video of the day.</text>
</svg>
