
<?xml version="1.0" encoding="UTF-8"?>
<svg xmlns="http://www.w3.org/2000/svg" width="1280" height="720" viewBox="0 0 1280 720" role="img" aria-label="Reentry planning">
  <defs>
    <linearGradient id="bg" x1="0" y1="0" x2="1" y2="1">
      <stop offset="0%" stop-color="#dff3ff"/>
      <stop offset="50%" stop-color="#fff3ea"/>
      <stop offset="100%" stop-color="#e9fff2"/>
    </linearGradient>
    <filter id="soft" x="-20%" y="-20%" width="140%" height="140%">
      <feGaussianBlur stdDeviation="10" result="b"/>
      <feColorMatrix in="b" type="matrix"
        values="1 0 0 0 0
                0 1 0 0 0
                0 0 1 0 0
                0 0 0 .25 0" result="s"/>
      <feBlend in="SourceGraphic" in2="s"/>
    </filter>
  </defs>
  <rect x="0" y="0" width="1280" height="720" rx="48" fill="url(#bg)"/>
  <g opacity="0.12">
    <circle cx="160" cy="120" r="90" fill="#ff7a59"/>
    <circle cx="1120" cy="140" r="110" fill="#3aa0ff"/>
    <circle cx="980" cy="610" r="140" fill="#34d399"/>
  </g>
  <g filter="url(#soft)">
    <rect x="140" y="120" width="1000" height="480" rx="40" fill="#ffffff" opacity="0.60"/>
  </g>
  <g transform="translate(0,0)">
    <circle cx="260" cy="360" r="120" fill="#0f172a" opacity="0.08"/>
    <g transform="translate(0,0) scale(2.1)">
      <path d="M190 120h260v40H190zm0 80h260v40H190zm0 80h180v40H190zM140 120h30v240h-30zM470 110h30v250h-30z" fill="#0f172a" opacity="0.62" transform="translate(280,80)"/>
    </g>
  </g>
  <text x="640" y="540" text-anchor="middle" font-family="system-ui, -apple-system, Segoe UI, Roboto, Arial" font-size="44" fill="#0f172a" opacity="0.75">Reentry planning</text>
  <text x="640" y="592" text-anchor="middle" font-family="system-ui, -apple-system, Segoe UI, Roboto, Arial" font-size="24" fill="#0f172a" opacity="0.55">Replace this placeholder image later</text>
</svg>
